# xmcd CD database file
#
# Track frame offsets:
#	150
#	14288
#	46838
#	73178
#	97060
#	126248
#	147880
#	164295
#	189880
#	219583
#	245705
#	277238
#
# Disc length: 3895 seconds
#
# Revision: 0
# Processed by: cddbd v1.5.1PL0 Copyright (c) Steve Scherf et al.
# Submitted via: CDex 1.51
#
DISCID=b60f350c
DTITLE=有澤孝紀 - ビックリマン大全集 Disc3
DYEAR=2005
DGENRE=Anime
TTITLE0=小橋二郎 - ドリーミング・A・Go・Go
TTITLE1=天聖界があぶない <集まれ若神子たち！>
TTITLE2=聖フェニックス聖戦衣化
TTITLE3=聖ボット ヘラクライスト
TTITLE4=天聖門を開けろ！
TTITLE5=Ammy - GOING WONDER MARIA（ワンダーマリアのテーマ）
TTITLE6=金丸日向子 - 恋はLucky Raki Raki（ストライクエンジェルのテーマ）
TTITLE7=無縁ゾーンの苦しい旅
TTITLE8=蘇った魔スターＰ
TTITLE9=ヤマト爆神 誕生
TTITLE10=次動ネブラの旅
TTITLE11=織田純一郎、Ammy - スーパー・ウォーズ
EXTD=YEAR: 2005
EXTT0=
EXTT1=
EXTT2=
EXTT3=
EXTT4=
EXTT5=
EXTT6=
EXTT7=
EXTT8=
EXTT9=
EXTT10=
EXTT11=
PLAYORDER=
